<?xml version="1.0" encoding="UTF-8" standalone="no"?>
<!DOCTYPE svg PUBLIC "-//W3C//DTD SVG 1.1//EN"
 "http://www.w3.org/Graphics/SVG/1.1/DTD/svg11.dtd">
<!-- Generated by graphviz version 2.47.0 (20210316.0004)
 -->
<!-- Title: dbml Pages: 1 -->
<svg width="1893pt" height="3201pt"
 viewBox="0.00 0.00 1893.02 3201.49" xmlns="http://www.w3.org/2000/svg" xmlns:xlink="http://www.w3.org/1999/xlink">
<g id="graph0" class="graph" transform="scale(1 1) rotate(0) translate(4 3197.49)">
<title>dbml</title>
<!-- Dog -->
<g id="Dog" class="node">
<title>Dog</title>
<ellipse fill="none" stroke="black" stroke-width="0" cx="972.21" cy="-2978.53" rx="235.43" ry="214.92"/>
<polygon fill="#1d71b8" stroke="transparent" points="808.21,-3068.53 808.21,-3128.53 1137.21,-3128.53 1137.21,-3068.53 808.21,-3068.53"/>
<polygon fill="none" stroke="#29235c" points="808.21,-3068.53 808.21,-3128.53 1137.21,-3128.53 1137.21,-3068.53 808.21,-3068.53"/>
<text text-anchor="start" x="881.12" y="-3089.73" font-family="Helvetica,sans-Serif" font-weight="bold" font-size="32.00" fill="#ffffff"> &#160;&#160;&#160;&#160;&#160;&#160;Dog &#160;&#160;&#160;&#160;&#160;&#160;</text>
<polygon fill="#e7e2dd" stroke="transparent" points="808.21,-3008.53 808.21,-3068.53 1137.21,-3068.53 1137.21,-3008.53 808.21,-3008.53"/>
<polygon fill="none" stroke="#29235c" points="808.21,-3008.53 808.21,-3068.53 1137.21,-3068.53 1137.21,-3008.53 808.21,-3008.53"/>
<text text-anchor="start" x="819.21" y="-3029.73" font-family="Helvetica,sans-Serif" font-weight="bold" font-size="32.00" fill="#29235c">id</text>
<text text-anchor="start" x="844.1" y="-3029.73" font-family="Helvetica,sans-Serif" font-size="32.00" fill="#29235c"> &#160;&#160;&#160;</text>
<text text-anchor="start" x="983.99" y="-3029.73" font-family="Helvetica,sans-Serif" font-style="italic" font-size="32.00" fill="#29235c">INTEGER</text>
<polygon fill="#e7e2dd" stroke="transparent" points="808.21,-2948.53 808.21,-3008.53 1137.21,-3008.53 1137.21,-2948.53 808.21,-2948.53"/>
<polygon fill="none" stroke="#29235c" points="808.21,-2948.53 808.21,-3008.53 1137.21,-3008.53 1137.21,-2948.53 808.21,-2948.53"/>
<text text-anchor="start" x="819.21" y="-2968.73" font-family="Helvetica,sans-Serif" font-size="32.00" fill="#29235c">name &#160;&#160;&#160;</text>
<text text-anchor="start" x="969.78" y="-2969.73" font-family="Helvetica,sans-Serif" font-style="italic" font-size="32.00" fill="#29235c">VARCHAR</text>
<polygon fill="#e7e2dd" stroke="transparent" points="808.21,-2888.53 808.21,-2948.53 1137.21,-2948.53 1137.21,-2888.53 808.21,-2888.53"/>
<polygon fill="none" stroke="#29235c" points="808.21,-2888.53 808.21,-2948.53 1137.21,-2948.53 1137.21,-2888.53 808.21,-2888.53"/>
<text text-anchor="start" x="819.21" y="-2908.73" font-family="Helvetica,sans-Serif" font-size="32.00" fill="#29235c">breed &#160;&#160;&#160;</text>
<text text-anchor="start" x="969.78" y="-2909.73" font-family="Helvetica,sans-Serif" font-style="italic" font-size="32.00" fill="#29235c">VARCHAR</text>
<polygon fill="#e7e2dd" stroke="transparent" points="808.21,-2828.53 808.21,-2888.53 1137.21,-2888.53 1137.21,-2828.53 808.21,-2828.53"/>
<polygon fill="none" stroke="#29235c" points="808.21,-2828.53 808.21,-2888.53 1137.21,-2888.53 1137.21,-2828.53 808.21,-2828.53"/>
<text text-anchor="start" x="819.02" y="-2848.73" font-family="Helvetica,sans-Serif" font-size="32.00" fill="#29235c">owner_id &#160;&#160;&#160;</text>
<text text-anchor="start" x="984.1" y="-2849.73" font-family="Helvetica,sans-Serif" font-style="italic" font-size="32.00" fill="#29235c">INTEGER</text>
<polygon fill="none" stroke="#29235c" stroke-width="2" points="806.71,-2827.53 806.71,-3129.53 1137.71,-3129.53 1137.71,-2827.53 806.71,-2827.53"/>
</g>
<!-- Owner -->
<g id="Owner" class="node">
<title>Owner</title>
<ellipse fill="none" stroke="black" stroke-width="0" cx="1597.94" cy="-2488.53" rx="287.17" ry="257.27"/>
<polygon fill="#1d71b8" stroke="transparent" points="1396.94,-2608.53 1396.94,-2668.53 1798.94,-2668.53 1798.94,-2608.53 1396.94,-2608.53"/>
<polygon fill="none" stroke="#29235c" points="1396.94,-2608.53 1396.94,-2668.53 1798.94,-2668.53 1798.94,-2608.53 1396.94,-2608.53"/>
<text text-anchor="start" x="1488.57" y="-2629.73" font-family="Helvetica,sans-Serif" font-weight="bold" font-size="32.00" fill="#ffffff"> &#160;&#160;&#160;&#160;&#160;&#160;Owner &#160;&#160;&#160;&#160;&#160;&#160;</text>
<polygon fill="#e7e2dd" stroke="transparent" points="1396.94,-2548.53 1396.94,-2608.53 1798.94,-2608.53 1798.94,-2548.53 1396.94,-2548.53"/>
<polygon fill="none" stroke="#29235c" points="1396.94,-2548.53 1396.94,-2608.53 1798.94,-2608.53 1798.94,-2548.53 1396.94,-2548.53"/>
<text text-anchor="start" x="1407.94" y="-2569.73" font-family="Helvetica,sans-Serif" font-weight="bold" font-size="32.00" fill="#29235c">id</text>
<text text-anchor="start" x="1432.83" y="-2569.73" font-family="Helvetica,sans-Serif" font-size="32.00" fill="#29235c"> &#160;&#160;&#160;</text>
<text text-anchor="start" x="1645.72" y="-2569.73" font-family="Helvetica,sans-Serif" font-style="italic" font-size="32.00" fill="#29235c">INTEGER</text>
<polygon fill="#e7e2dd" stroke="transparent" points="1396.94,-2488.53 1396.94,-2548.53 1798.94,-2548.53 1798.94,-2488.53 1396.94,-2488.53"/>
<polygon fill="none" stroke="#29235c" points="1396.94,-2488.53 1396.94,-2548.53 1798.94,-2548.53 1798.94,-2488.53 1396.94,-2488.53"/>
<text text-anchor="start" x="1407.94" y="-2508.73" font-family="Helvetica,sans-Serif" font-size="32.00" fill="#29235c">first_name &#160;&#160;&#160;</text>
<text text-anchor="start" x="1631.51" y="-2509.73" font-family="Helvetica,sans-Serif" font-style="italic" font-size="32.00" fill="#29235c">VARCHAR</text>
<polygon fill="#e7e2dd" stroke="transparent" points="1396.94,-2428.53 1396.94,-2488.53 1798.94,-2488.53 1798.94,-2428.53 1396.94,-2428.53"/>
<polygon fill="none" stroke="#29235c" points="1396.94,-2428.53 1396.94,-2488.53 1798.94,-2488.53 1798.94,-2428.53 1396.94,-2428.53"/>
<text text-anchor="start" x="1407.94" y="-2448.73" font-family="Helvetica,sans-Serif" font-size="32.00" fill="#29235c">last_name &#160;&#160;&#160;</text>
<text text-anchor="start" x="1631.51" y="-2449.73" font-family="Helvetica,sans-Serif" font-style="italic" font-size="32.00" fill="#29235c">VARCHAR</text>
<polygon fill="#e7e2dd" stroke="transparent" points="1396.94,-2368.53 1396.94,-2428.53 1798.94,-2428.53 1798.94,-2368.53 1396.94,-2368.53"/>
<polygon fill="none" stroke="#29235c" points="1396.94,-2368.53 1396.94,-2428.53 1798.94,-2428.53 1798.94,-2368.53 1396.94,-2368.53"/>
<text text-anchor="start" x="1407.94" y="-2388.73" font-family="Helvetica,sans-Serif" font-size="32.00" fill="#29235c">email &#160;&#160;&#160;</text>
<text text-anchor="start" x="1631.51" y="-2389.73" font-family="Helvetica,sans-Serif" font-style="italic" font-size="32.00" fill="#29235c">VARCHAR</text>
<polygon fill="#e7e2dd" stroke="transparent" points="1396.94,-2308.53 1396.94,-2368.53 1798.94,-2368.53 1798.94,-2308.53 1396.94,-2308.53"/>
<polygon fill="none" stroke="#29235c" points="1396.94,-2308.53 1396.94,-2368.53 1798.94,-2368.53 1798.94,-2308.53 1396.94,-2308.53"/>
<text text-anchor="start" x="1407.71" y="-2328.73" font-family="Helvetica,sans-Serif" font-size="32.00" fill="#29235c">account_balance &#160;&#160;&#160;</text>
<text text-anchor="start" x="1684.88" y="-2329.73" font-family="Helvetica,sans-Serif" font-style="italic" font-size="32.00" fill="#29235c">FLOAT</text>
<polygon fill="none" stroke="#29235c" stroke-width="2" points="1395.94,-2307.53 1395.94,-2669.53 1799.94,-2669.53 1799.94,-2307.53 1395.94,-2307.53"/>
</g>
<!-- Dog&#45;&gt;Owner -->
<!-- Dog&#45;&gt;Owner -->
<g id="edge2" class="edge">
<title>Dog:e&#45;&gt;Owner:w</title>
<path fill="none" stroke="#29235c" stroke-width="3" d="M1138.21,-2858.53C1214.53,-2858.53 1222.19,-2809.78 1274.85,-2754.53 1337.93,-2688.36 1303.77,-2586.44 1385.91,-2578.97"/>
<polygon fill="#29235c" stroke="#29235c" stroke-width="3" points="1386.1,-2582.46 1395.94,-2578.53 1385.79,-2575.47 1386.1,-2582.46"/>
<text text-anchor="middle" x="1389.71" y="-2588.13" font-family="Helvetica,sans-Serif" font-size="32.00" fill="#29235c">*</text>
<text text-anchor="middle" x="1147.1" y="-2868.13" font-family="Helvetica,sans-Serif" font-size="32.00" fill="#29235c">1</text>
</g>
<!-- Location -->
<g id="Location" class="node">
<title>Location</title>
<ellipse fill="none" stroke="black" stroke-width="0" cx="972.21" cy="-172.53" rx="234.1" ry="172.57"/>
<polygon fill="#1d71b8" stroke="transparent" points="809.21,-232.53 809.21,-292.53 1136.21,-292.53 1136.21,-232.53 809.21,-232.53"/>
<polygon fill="none" stroke="#29235c" points="809.21,-232.53 809.21,-292.53 1136.21,-292.53 1136.21,-232.53 809.21,-232.53"/>
<text text-anchor="start" x="849.99" y="-253.73" font-family="Helvetica,sans-Serif" font-weight="bold" font-size="32.00" fill="#ffffff"> &#160;&#160;&#160;&#160;&#160;&#160;Location &#160;&#160;&#160;&#160;&#160;&#160;</text>
<polygon fill="#e7e2dd" stroke="transparent" points="809.21,-172.53 809.21,-232.53 1136.21,-232.53 1136.21,-172.53 809.21,-172.53"/>
<polygon fill="none" stroke="#29235c" points="809.21,-172.53 809.21,-232.53 1136.21,-232.53 1136.21,-172.53 809.21,-172.53"/>
<text text-anchor="start" x="820.21" y="-193.73" font-family="Helvetica,sans-Serif" font-weight="bold" font-size="32.00" fill="#29235c">id</text>
<text text-anchor="start" x="845.1" y="-193.73" font-family="Helvetica,sans-Serif" font-size="32.00" fill="#29235c"> &#160;&#160;&#160;</text>
<text text-anchor="start" x="982.99" y="-193.73" font-family="Helvetica,sans-Serif" font-style="italic" font-size="32.00" fill="#29235c">INTEGER</text>
<polygon fill="#e7e2dd" stroke="transparent" points="809.21,-112.53 809.21,-172.53 1136.21,-172.53 1136.21,-112.53 809.21,-112.53"/>
<polygon fill="none" stroke="#29235c" points="809.21,-112.53 809.21,-172.53 1136.21,-172.53 1136.21,-112.53 809.21,-112.53"/>
<text text-anchor="start" x="820.21" y="-132.73" font-family="Helvetica,sans-Serif" font-size="32.00" fill="#29235c">name &#160;&#160;&#160;</text>
<text text-anchor="start" x="968.78" y="-133.73" font-family="Helvetica,sans-Serif" font-style="italic" font-size="32.00" fill="#29235c">VARCHAR</text>
<polygon fill="#e7e2dd" stroke="transparent" points="809.21,-52.53 809.21,-112.53 1136.21,-112.53 1136.21,-52.53 809.21,-52.53"/>
<polygon fill="none" stroke="#29235c" points="809.21,-52.53 809.21,-112.53 1136.21,-112.53 1136.21,-52.53 809.21,-52.53"/>
<text text-anchor="start" x="820.02" y="-72.73" font-family="Helvetica,sans-Serif" font-size="32.00" fill="#29235c">address &#160;&#160;&#160;</text>
<text text-anchor="start" x="969" y="-73.73" font-family="Helvetica,sans-Serif" font-style="italic" font-size="32.00" fill="#29235c">VARCHAR</text>
<polygon fill="none" stroke="#29235c" stroke-width="2" points="807.71,-51.53 807.71,-293.53 1136.71,-293.53 1136.71,-51.53 807.71,-51.53"/>
</g>
<!-- Package -->
<g id="Package" class="node">
<title>Package</title>
<ellipse fill="none" stroke="black" stroke-width="0" cx="1597.94" cy="-1810.53" rx="210.02" ry="172.57"/>
<polygon fill="#1d71b8" stroke="transparent" points="1451.94,-1870.53 1451.94,-1930.53 1744.94,-1930.53 1744.94,-1870.53 1451.94,-1870.53"/>
<polygon fill="none" stroke="#29235c" points="1451.94,-1870.53 1451.94,-1930.53 1744.94,-1930.53 1744.94,-1870.53 1451.94,-1870.53"/>
<text text-anchor="start" x="1473.94" y="-1891.73" font-family="Helvetica,sans-Serif" font-weight="bold" font-size="32.00" fill="#ffffff"> &#160;&#160;&#160;&#160;&#160;&#160;Package &#160;&#160;&#160;&#160;&#160;&#160;</text>
<polygon fill="#e7e2dd" stroke="transparent" points="1451.94,-1810.53 1451.94,-1870.53 1744.94,-1870.53 1744.94,-1810.53 1451.94,-1810.53"/>
<polygon fill="none" stroke="#29235c" points="1451.94,-1810.53 1451.94,-1870.53 1744.94,-1870.53 1744.94,-1810.53 1451.94,-1810.53"/>
<text text-anchor="start" x="1462.94" y="-1831.73" font-family="Helvetica,sans-Serif" font-weight="bold" font-size="32.00" fill="#29235c">id</text>
<text text-anchor="start" x="1487.83" y="-1831.73" font-family="Helvetica,sans-Serif" font-size="32.00" fill="#29235c"> &#160;&#160;&#160;</text>
<text text-anchor="start" x="1591.72" y="-1831.73" font-family="Helvetica,sans-Serif" font-style="italic" font-size="32.00" fill="#29235c">INTEGER</text>
<polygon fill="#e7e2dd" stroke="transparent" points="1451.94,-1750.53 1451.94,-1810.53 1744.94,-1810.53 1744.94,-1750.53 1451.94,-1750.53"/>
<polygon fill="none" stroke="#29235c" points="1451.94,-1750.53 1451.94,-1810.53 1744.94,-1810.53 1744.94,-1750.53 1451.94,-1750.53"/>
<text text-anchor="start" x="1462.64" y="-1770.73" font-family="Helvetica,sans-Serif" font-size="32.00" fill="#29235c">name &#160;&#160;&#160;</text>
<text text-anchor="start" x="1577.72" y="-1771.73" font-family="Helvetica,sans-Serif" font-style="italic" font-size="32.00" fill="#29235c">VARCHAR</text>
<polygon fill="#e7e2dd" stroke="transparent" points="1451.94,-1690.53 1451.94,-1750.53 1744.94,-1750.53 1744.94,-1690.53 1451.94,-1690.53"/>
<polygon fill="none" stroke="#29235c" points="1451.94,-1690.53 1451.94,-1750.53 1744.94,-1750.53 1744.94,-1690.53 1451.94,-1690.53"/>
<text text-anchor="start" x="1462.94" y="-1710.73" font-family="Helvetica,sans-Serif" font-size="32.00" fill="#29235c">price &#160;&#160;&#160;</text>
<text text-anchor="start" x="1630.82" y="-1711.73" font-family="Helvetica,sans-Serif" font-style="italic" font-size="32.00" fill="#29235c">FLOAT</text>
<polygon fill="none" stroke="#29235c" stroke-width="2" points="1450.44,-1689.53 1450.44,-1931.53 1745.44,-1931.53 1745.44,-1689.53 1450.44,-1689.53"/>
</g>
<!-- Review -->
<g id="Review" class="node">
<title>Review</title>
<ellipse fill="none" stroke="black" stroke-width="0" cx="972.21" cy="-1955.53" rx="246.56" ry="257.27"/>
<polygon fill="#1d71b8" stroke="transparent" points="800.21,-2075.53 800.21,-2135.53 1145.21,-2135.53 1145.21,-2075.53 800.21,-2075.53"/>
<polygon fill="none" stroke="#29235c" points="800.21,-2075.53 800.21,-2135.53 1145.21,-2135.53 1145.21,-2075.53 800.21,-2075.53"/>
<text text-anchor="start" x="858.02" y="-2096.73" font-family="Helvetica,sans-Serif" font-weight="bold" font-size="32.00" fill="#ffffff"> &#160;&#160;&#160;&#160;&#160;&#160;Review &#160;&#160;&#160;&#160;&#160;&#160;</text>
<polygon fill="#e7e2dd" stroke="transparent" points="800.21,-2015.53 800.21,-2075.53 1145.21,-2075.53 1145.21,-2015.53 800.21,-2015.53"/>
<polygon fill="none" stroke="#29235c" points="800.21,-2015.53 800.21,-2075.53 1145.21,-2075.53 1145.21,-2015.53 800.21,-2015.53"/>
<text text-anchor="start" x="811.21" y="-2036.73" font-family="Helvetica,sans-Serif" font-weight="bold" font-size="32.00" fill="#29235c">id</text>
<text text-anchor="start" x="836.1" y="-2036.73" font-family="Helvetica,sans-Serif" font-size="32.00" fill="#29235c"> &#160;&#160;&#160;</text>
<text text-anchor="start" x="991.99" y="-2036.73" font-family="Helvetica,sans-Serif" font-style="italic" font-size="32.00" fill="#29235c">INTEGER</text>
<polygon fill="#e7e2dd" stroke="transparent" points="800.21,-1955.53 800.21,-2015.53 1145.21,-2015.53 1145.21,-1955.53 800.21,-1955.53"/>
<polygon fill="none" stroke="#29235c" points="800.21,-1955.53 800.21,-2015.53 1145.21,-2015.53 1145.21,-1955.53 800.21,-1955.53"/>
<text text-anchor="start" x="811.21" y="-1975.73" font-family="Helvetica,sans-Serif" font-size="32.00" fill="#29235c">walker_id &#160;&#160;&#160;</text>
<text text-anchor="start" x="991.99" y="-1976.73" font-family="Helvetica,sans-Serif" font-style="italic" font-size="32.00" fill="#29235c">INTEGER</text>
<polygon fill="#e7e2dd" stroke="transparent" points="800.21,-1895.53 800.21,-1955.53 1145.21,-1955.53 1145.21,-1895.53 800.21,-1895.53"/>
<polygon fill="none" stroke="#29235c" points="800.21,-1895.53 800.21,-1955.53 1145.21,-1955.53 1145.21,-1895.53 800.21,-1895.53"/>
<text text-anchor="start" x="811.21" y="-1915.73" font-family="Helvetica,sans-Serif" font-size="32.00" fill="#29235c">owner_id &#160;&#160;&#160;</text>
<text text-anchor="start" x="991.99" y="-1916.73" font-family="Helvetica,sans-Serif" font-style="italic" font-size="32.00" fill="#29235c">INTEGER</text>
<polygon fill="#e7e2dd" stroke="transparent" points="800.21,-1835.53 800.21,-1895.53 1145.21,-1895.53 1145.21,-1835.53 800.21,-1835.53"/>
<polygon fill="none" stroke="#29235c" points="800.21,-1835.53 800.21,-1895.53 1145.21,-1895.53 1145.21,-1835.53 800.21,-1835.53"/>
<text text-anchor="start" x="811.21" y="-1855.73" font-family="Helvetica,sans-Serif" font-size="32.00" fill="#29235c">rating &#160;&#160;&#160;</text>
<text text-anchor="start" x="991.99" y="-1856.73" font-family="Helvetica,sans-Serif" font-style="italic" font-size="32.00" fill="#29235c">INTEGER</text>
<polygon fill="#e7e2dd" stroke="transparent" points="800.21,-1775.53 800.21,-1835.53 1145.21,-1835.53 1145.21,-1775.53 800.21,-1775.53"/>
<polygon fill="none" stroke="#29235c" points="800.21,-1775.53 800.21,-1835.53 1145.21,-1835.53 1145.21,-1775.53 800.21,-1775.53"/>
<text text-anchor="start" x="811.14" y="-1795.73" font-family="Helvetica,sans-Serif" font-size="32.00" fill="#29235c">comment &#160;&#160;&#160;</text>
<text text-anchor="start" x="978" y="-1796.73" font-family="Helvetica,sans-Serif" font-style="italic" font-size="32.00" fill="#29235c">VARCHAR</text>
<polygon fill="none" stroke="#29235c" stroke-width="2" points="798.71,-1774.53 798.71,-2136.53 1145.71,-2136.53 1145.71,-1774.53 798.71,-1774.53"/>
</g>
<!-- Review&#45;&gt;Owner -->
<!-- Review&#45;&gt;Owner -->
<g id="edge4" class="edge">
<title>Review:e&#45;&gt;Owner:w</title>
<path fill="none" stroke="#29235c" stroke-width="3" d="M1146.21,-1925.53C1290.06,-1925.53 1223.06,-2088.33 1274.85,-2222.53 1333.73,-2375.1 1233.3,-2569.96 1385.54,-2578.26"/>
<polygon fill="#29235c" stroke="#29235c" stroke-width="3" points="1385.85,-2581.77 1395.94,-2578.53 1386.03,-2574.77 1385.85,-2581.77"/>
<text text-anchor="middle" x="1389.71" y="-2549.73" font-family="Helvetica,sans-Serif" font-size="32.00" fill="#29235c">*</text>
<text text-anchor="middle" x="1155.1" y="-1935.13" font-family="Helvetica,sans-Serif" font-size="32.00" fill="#29235c">1</text>
</g>
<!-- Walker -->
<g id="Walker" class="node">
<title>Walker</title>
<ellipse fill="none" stroke="black" stroke-width="0" cx="1597.94" cy="-1216.53" rx="210.02" ry="172.57"/>
<polygon fill="#1d71b8" stroke="transparent" points="1451.94,-1276.53 1451.94,-1336.53 1744.94,-1336.53 1744.94,-1276.53 1451.94,-1276.53"/>
<polygon fill="none" stroke="#29235c" points="1451.94,-1276.53 1451.94,-1336.53 1744.94,-1336.53 1744.94,-1276.53 1451.94,-1276.53"/>
<text text-anchor="start" x="1486.42" y="-1297.73" font-family="Helvetica,sans-Serif" font-weight="bold" font-size="32.00" fill="#ffffff"> &#160;&#160;&#160;&#160;&#160;&#160;Walker &#160;&#160;&#160;&#160;&#160;&#160;</text>
<polygon fill="#e7e2dd" stroke="transparent" points="1451.94,-1216.53 1451.94,-1276.53 1744.94,-1276.53 1744.94,-1216.53 1451.94,-1216.53"/>
<polygon fill="none" stroke="#29235c" points="1451.94,-1216.53 1451.94,-1276.53 1744.94,-1276.53 1744.94,-1216.53 1451.94,-1216.53"/>
<text text-anchor="start" x="1462.94" y="-1237.73" font-family="Helvetica,sans-Serif" font-weight="bold" font-size="32.00" fill="#29235c">id</text>
<text text-anchor="start" x="1487.83" y="-1237.73" font-family="Helvetica,sans-Serif" font-size="32.00" fill="#29235c"> &#160;&#160;&#160;</text>
<text text-anchor="start" x="1591.72" y="-1237.73" font-family="Helvetica,sans-Serif" font-style="italic" font-size="32.00" fill="#29235c">INTEGER</text>
<polygon fill="#e7e2dd" stroke="transparent" points="1451.94,-1156.53 1451.94,-1216.53 1744.94,-1216.53 1744.94,-1156.53 1451.94,-1156.53"/>
<polygon fill="none" stroke="#29235c" points="1451.94,-1156.53 1451.94,-1216.53 1744.94,-1216.53 1744.94,-1156.53 1451.94,-1156.53"/>
<text text-anchor="start" x="1462.64" y="-1176.73" font-family="Helvetica,sans-Serif" font-size="32.00" fill="#29235c">name &#160;&#160;&#160;</text>
<text text-anchor="start" x="1577.72" y="-1177.73" font-family="Helvetica,sans-Serif" font-style="italic" font-size="32.00" fill="#29235c">VARCHAR</text>
<polygon fill="#e7e2dd" stroke="transparent" points="1451.94,-1096.53 1451.94,-1156.53 1744.94,-1156.53 1744.94,-1096.53 1451.94,-1096.53"/>
<polygon fill="none" stroke="#29235c" points="1451.94,-1096.53 1451.94,-1156.53 1744.94,-1156.53 1744.94,-1096.53 1451.94,-1096.53"/>
<text text-anchor="start" x="1462.94" y="-1116.73" font-family="Helvetica,sans-Serif" font-size="32.00" fill="#29235c">rating &#160;&#160;&#160;</text>
<text text-anchor="start" x="1630.82" y="-1117.73" font-family="Helvetica,sans-Serif" font-style="italic" font-size="32.00" fill="#29235c">FLOAT</text>
<polygon fill="none" stroke="#29235c" stroke-width="2" points="1450.44,-1095.53 1450.44,-1337.53 1745.44,-1337.53 1745.44,-1095.53 1450.44,-1095.53"/>
</g>
<!-- Review&#45;&gt;Walker -->
<!-- Review&#45;&gt;Walker -->
<g id="edge6" class="edge">
<title>Review:e&#45;&gt;Walker:w</title>
<path fill="none" stroke="#29235c" stroke-width="3" d="M1146.21,-1985.53C1498.01,-1985.53 1103.52,-1260.9 1440.74,-1246.74"/>
<polygon fill="#29235c" stroke="#29235c" stroke-width="3" points="1441.01,-1250.24 1450.94,-1246.53 1440.87,-1243.24 1441.01,-1250.24"/>
<text text-anchor="middle" x="1444.71" y="-1256.13" font-family="Helvetica,sans-Serif" font-size="32.00" fill="#29235c">*</text>
<text text-anchor="middle" x="1155.1" y="-1995.13" font-family="Helvetica,sans-Serif" font-size="32.00" fill="#29235c">1</text>
</g>
<!-- Schedule -->
<g id="Schedule" class="node">
<title>Schedule</title>
<ellipse fill="none" stroke="black" stroke-width="0" cx="972.21" cy="-1021.53" rx="302.78" ry="257.27"/>
<polygon fill="#1d71b8" stroke="transparent" points="760.21,-1141.53 760.21,-1201.53 1184.21,-1201.53 1184.21,-1141.53 760.21,-1141.53"/>
<polygon fill="none" stroke="#29235c" points="760.21,-1141.53 760.21,-1201.53 1184.21,-1201.53 1184.21,-1141.53 760.21,-1141.53"/>
<text text-anchor="start" x="843.27" y="-1162.73" font-family="Helvetica,sans-Serif" font-weight="bold" font-size="32.00" fill="#ffffff"> &#160;&#160;&#160;&#160;&#160;&#160;Schedule &#160;&#160;&#160;&#160;&#160;&#160;</text>
<polygon fill="#e7e2dd" stroke="transparent" points="760.21,-1081.53 760.21,-1141.53 1184.21,-1141.53 1184.21,-1081.53 760.21,-1081.53"/>
<polygon fill="none" stroke="#29235c" points="760.21,-1081.53 760.21,-1141.53 1184.21,-1141.53 1184.21,-1081.53 760.21,-1081.53"/>
<text text-anchor="start" x="771.21" y="-1102.73" font-family="Helvetica,sans-Serif" font-weight="bold" font-size="32.00" fill="#29235c">id</text>
<text text-anchor="start" x="796.1" y="-1102.73" font-family="Helvetica,sans-Serif" font-size="32.00" fill="#29235c"> &#160;&#160;&#160;</text>
<text text-anchor="start" x="1030.99" y="-1102.73" font-family="Helvetica,sans-Serif" font-style="italic" font-size="32.00" fill="#29235c">INTEGER</text>
<polygon fill="#e7e2dd" stroke="transparent" points="760.21,-1021.53 760.21,-1081.53 1184.21,-1081.53 1184.21,-1021.53 760.21,-1021.53"/>
<polygon fill="none" stroke="#29235c" points="760.21,-1021.53 760.21,-1081.53 1184.21,-1081.53 1184.21,-1021.53 760.21,-1021.53"/>
<text text-anchor="start" x="771.21" y="-1041.73" font-family="Helvetica,sans-Serif" font-size="32.00" fill="#29235c">walker_id &#160;&#160;&#160;</text>
<text text-anchor="start" x="1030.99" y="-1042.73" font-family="Helvetica,sans-Serif" font-style="italic" font-size="32.00" fill="#29235c">INTEGER</text>
<polygon fill="#e7e2dd" stroke="transparent" points="760.21,-961.53 760.21,-1021.53 1184.21,-1021.53 1184.21,-961.53 760.21,-961.53"/>
<polygon fill="none" stroke="#29235c" points="760.21,-961.53 760.21,-1021.53 1184.21,-1021.53 1184.21,-961.53 760.21,-961.53"/>
<text text-anchor="start" x="770.78" y="-981.73" font-family="Helvetica,sans-Serif" font-size="32.00" fill="#29235c">available_date &#160;&#160;&#160;</text>
<text text-anchor="start" x="1011.83" y="-982.73" font-family="Helvetica,sans-Serif" font-style="italic" font-size="32.00" fill="#29235c">DATETIME</text>
<polygon fill="#e7e2dd" stroke="transparent" points="760.21,-901.53 760.21,-961.53 1184.21,-961.53 1184.21,-901.53 760.21,-901.53"/>
<polygon fill="none" stroke="#29235c" points="760.21,-901.53 760.21,-961.53 1184.21,-961.53 1184.21,-901.53 760.21,-901.53"/>
<text text-anchor="start" x="771.21" y="-921.73" font-family="Helvetica,sans-Serif" font-size="32.00" fill="#29235c">start_time &#160;&#160;&#160;</text>
<text text-anchor="start" x="1011.44" y="-922.73" font-family="Helvetica,sans-Serif" font-style="italic" font-size="32.00" fill="#29235c">DATETIME</text>
<polygon fill="#e7e2dd" stroke="transparent" points="760.21,-841.53 760.21,-901.53 1184.21,-901.53 1184.21,-841.53 760.21,-841.53"/>
<polygon fill="none" stroke="#29235c" points="760.21,-841.53 760.21,-901.53 1184.21,-901.53 1184.21,-841.53 760.21,-841.53"/>
<text text-anchor="start" x="771.21" y="-861.73" font-family="Helvetica,sans-Serif" font-size="32.00" fill="#29235c">end_time &#160;&#160;&#160;</text>
<text text-anchor="start" x="1011.44" y="-862.73" font-family="Helvetica,sans-Serif" font-style="italic" font-size="32.00" fill="#29235c">DATETIME</text>
<polygon fill="none" stroke="#29235c" stroke-width="2" points="759.21,-840.53 759.21,-1202.53 1185.21,-1202.53 1185.21,-840.53 759.21,-840.53"/>
</g>
<!-- Schedule&#45;&gt;Walker -->
<!-- Schedule&#45;&gt;Walker -->
<g id="edge8" class="edge">
<title>Schedule:e&#45;&gt;Walker:w</title>
<path fill="none" stroke="#29235c" stroke-width="3" d="M1185.21,-1051.53C1328.26,-1051.53 1305.63,-1237.5 1440.92,-1246.22"/>
<polygon fill="#29235c" stroke="#29235c" stroke-width="3" points="1440.83,-1249.72 1450.94,-1246.53 1441.05,-1242.72 1440.83,-1249.72"/>
<text text-anchor="middle" x="1444.71" y="-1217.73" font-family="Helvetica,sans-Serif" font-size="32.00" fill="#29235c">*</text>
<text text-anchor="middle" x="1194.1" y="-1061.13" font-family="Helvetica,sans-Serif" font-size="32.00" fill="#29235c">1</text>
</g>
<!-- Service -->
<g id="Service" class="node">
<title>Service</title>
<ellipse fill="none" stroke="black" stroke-width="0" cx="1597.94" cy="-535.53" rx="263.09" ry="172.57"/>
<polygon fill="#1d71b8" stroke="transparent" points="1413.94,-595.53 1413.94,-655.53 1781.94,-655.53 1781.94,-595.53 1413.94,-595.53"/>
<polygon fill="none" stroke="#29235c" points="1413.94,-595.53 1413.94,-655.53 1781.94,-655.53 1781.94,-595.53 1413.94,-595.53"/>
<text text-anchor="start" x="1482.35" y="-616.73" font-family="Helvetica,sans-Serif" font-weight="bold" font-size="32.00" fill="#ffffff"> &#160;&#160;&#160;&#160;&#160;&#160;Service &#160;&#160;&#160;&#160;&#160;&#160;</text>
<polygon fill="#e7e2dd" stroke="transparent" points="1413.94,-535.53 1413.94,-595.53 1781.94,-595.53 1781.94,-535.53 1413.94,-535.53"/>
<polygon fill="none" stroke="#29235c" points="1413.94,-535.53 1413.94,-595.53 1781.94,-595.53 1781.94,-535.53 1413.94,-535.53"/>
<text text-anchor="start" x="1424.94" y="-556.73" font-family="Helvetica,sans-Serif" font-weight="bold" font-size="32.00" fill="#29235c">id</text>
<text text-anchor="start" x="1449.83" y="-556.73" font-family="Helvetica,sans-Serif" font-size="32.00" fill="#29235c"> &#160;&#160;&#160;</text>
<text text-anchor="start" x="1628.72" y="-556.73" font-family="Helvetica,sans-Serif" font-style="italic" font-size="32.00" fill="#29235c">INTEGER</text>
<polygon fill="#e7e2dd" stroke="transparent" points="1413.94,-475.53 1413.94,-535.53 1781.94,-535.53 1781.94,-475.53 1413.94,-475.53"/>
<polygon fill="none" stroke="#29235c" points="1413.94,-475.53 1413.94,-535.53 1781.94,-535.53 1781.94,-475.53 1413.94,-475.53"/>
<text text-anchor="start" x="1424.94" y="-495.73" font-family="Helvetica,sans-Serif" font-size="32.00" fill="#29235c">name &#160;&#160;&#160;</text>
<text text-anchor="start" x="1614.51" y="-496.73" font-family="Helvetica,sans-Serif" font-style="italic" font-size="32.00" fill="#29235c">VARCHAR</text>
<polygon fill="#e7e2dd" stroke="transparent" points="1413.94,-415.53 1413.94,-475.53 1781.94,-475.53 1781.94,-415.53 1413.94,-415.53"/>
<polygon fill="none" stroke="#29235c" points="1413.94,-415.53 1413.94,-475.53 1781.94,-475.53 1781.94,-415.53 1413.94,-415.53"/>
<text text-anchor="start" x="1424.81" y="-435.73" font-family="Helvetica,sans-Serif" font-size="32.00" fill="#29235c">description &#160;&#160;&#160;</text>
<text text-anchor="start" x="1614.72" y="-436.73" font-family="Helvetica,sans-Serif" font-style="italic" font-size="32.00" fill="#29235c">VARCHAR</text>
<polygon fill="none" stroke="#29235c" stroke-width="2" points="1412.94,-414.53 1412.94,-656.53 1782.94,-656.53 1782.94,-414.53 1412.94,-414.53"/>
</g>
<!-- Subscription -->
<g id="Subscription" class="node">
<title>Subscription</title>
<ellipse fill="none" stroke="black" stroke-width="0" cx="972.21" cy="-2488.53" rx="259.52" ry="257.27"/>
<polygon fill="#1d71b8" stroke="transparent" points="791.21,-2608.53 791.21,-2668.53 1154.21,-2668.53 1154.21,-2608.53 791.21,-2608.53"/>
<polygon fill="none" stroke="#29235c" points="791.21,-2608.53 791.21,-2668.53 1154.21,-2668.53 1154.21,-2608.53 791.21,-2608.53"/>
<text text-anchor="start" x="822.44" y="-2629.73" font-family="Helvetica,sans-Serif" font-weight="bold" font-size="32.00" fill="#ffffff"> &#160;&#160;&#160;&#160;&#160;&#160;Subscription &#160;&#160;&#160;&#160;&#160;&#160;</text>
<polygon fill="#e7e2dd" stroke="transparent" points="791.21,-2548.53 791.21,-2608.53 1154.21,-2608.53 1154.21,-2548.53 791.21,-2548.53"/>
<polygon fill="none" stroke="#29235c" points="791.21,-2548.53 791.21,-2608.53 1154.21,-2608.53 1154.21,-2548.53 791.21,-2548.53"/>
<text text-anchor="start" x="802.21" y="-2569.73" font-family="Helvetica,sans-Serif" font-weight="bold" font-size="32.00" fill="#29235c">id</text>
<text text-anchor="start" x="827.1" y="-2569.73" font-family="Helvetica,sans-Serif" font-size="32.00" fill="#29235c"> &#160;&#160;&#160;</text>
<text text-anchor="start" x="1000.99" y="-2569.73" font-family="Helvetica,sans-Serif" font-style="italic" font-size="32.00" fill="#29235c">INTEGER</text>
<polygon fill="#e7e2dd" stroke="transparent" points="791.21,-2488.53 791.21,-2548.53 1154.21,-2548.53 1154.21,-2488.53 791.21,-2488.53"/>
<polygon fill="none" stroke="#29235c" points="791.21,-2488.53 791.21,-2548.53 1154.21,-2548.53 1154.21,-2488.53 791.21,-2488.53"/>
<text text-anchor="start" x="802.21" y="-2508.73" font-family="Helvetica,sans-Serif" font-size="32.00" fill="#29235c">owner_id &#160;&#160;&#160;</text>
<text text-anchor="start" x="1000.99" y="-2509.73" font-family="Helvetica,sans-Serif" font-style="italic" font-size="32.00" fill="#29235c">INTEGER</text>
<polygon fill="#e7e2dd" stroke="transparent" points="791.21,-2428.53 791.21,-2488.53 1154.21,-2488.53 1154.21,-2428.53 791.21,-2428.53"/>
<polygon fill="none" stroke="#29235c" points="791.21,-2428.53 791.21,-2488.53 1154.21,-2488.53 1154.21,-2428.53 791.21,-2428.53"/>
<text text-anchor="start" x="802.11" y="-2448.73" font-family="Helvetica,sans-Serif" font-size="32.00" fill="#29235c">package_id &#160;&#160;&#160;</text>
<text text-anchor="start" x="1001.1" y="-2449.73" font-family="Helvetica,sans-Serif" font-style="italic" font-size="32.00" fill="#29235c">INTEGER</text>
<polygon fill="#e7e2dd" stroke="transparent" points="791.21,-2368.53 791.21,-2428.53 1154.21,-2428.53 1154.21,-2368.53 791.21,-2368.53"/>
<polygon fill="none" stroke="#29235c" points="791.21,-2368.53 791.21,-2428.53 1154.21,-2428.53 1154.21,-2368.53 791.21,-2368.53"/>
<text text-anchor="start" x="802.21" y="-2388.73" font-family="Helvetica,sans-Serif" font-size="32.00" fill="#29235c">start_date &#160;&#160;&#160;</text>
<text text-anchor="start" x="981.44" y="-2389.73" font-family="Helvetica,sans-Serif" font-style="italic" font-size="32.00" fill="#29235c">DATETIME</text>
<polygon fill="#e7e2dd" stroke="transparent" points="791.21,-2308.53 791.21,-2368.53 1154.21,-2368.53 1154.21,-2308.53 791.21,-2308.53"/>
<polygon fill="none" stroke="#29235c" points="791.21,-2308.53 791.21,-2368.53 1154.21,-2368.53 1154.21,-2308.53 791.21,-2308.53"/>
<text text-anchor="start" x="802.21" y="-2328.73" font-family="Helvetica,sans-Serif" font-size="32.00" fill="#29235c">end_date &#160;&#160;&#160;</text>
<text text-anchor="start" x="981.44" y="-2329.73" font-family="Helvetica,sans-Serif" font-style="italic" font-size="32.00" fill="#29235c">DATETIME</text>
<polygon fill="none" stroke="#29235c" stroke-width="2" points="789.71,-2307.53 789.71,-2669.53 1154.71,-2669.53 1154.71,-2307.53 789.71,-2307.53"/>
</g>
<!-- Subscription&#45;&gt;Owner -->
<!-- Subscription&#45;&gt;Owner -->
<g id="edge10" class="edge">
<title>Subscription:e&#45;&gt;Owner:w</title>
<path fill="none" stroke="#29235c" stroke-width="3" d="M1155.21,-2518.53C1262.03,-2518.53 1284.32,-2574.84 1385.86,-2578.36"/>
<polygon fill="#29235c" stroke="#29235c" stroke-width="3" points="1385.88,-2581.86 1395.94,-2578.53 1386,-2574.86 1385.88,-2581.86"/>
<text text-anchor="middle" x="1402.16" y="-2588.13" font-family="Helvetica,sans-Serif" font-size="32.00" fill="#29235c">*</text>
<text text-anchor="middle" x="1164.1" y="-2528.13" font-family="Helvetica,sans-Serif" font-size="32.00" fill="#29235c">1</text>
</g>
<!-- Subscription&#45;&gt;Package -->
<!-- Subscription&#45;&gt;Package -->
<g id="edge12" class="edge">
<title>Subscription:e&#45;&gt;Package:w</title>
<path fill="none" stroke="#29235c" stroke-width="3" d="M1155.21,-2458.53C1456.28,-2458.53 1153.4,-1854.34 1440.91,-1840.77"/>
<polygon fill="#29235c" stroke="#29235c" stroke-width="3" points="1441.02,-1844.26 1450.94,-1840.53 1440.86,-1837.27 1441.02,-1844.26"/>
<text text-anchor="middle" x="1444.71" y="-1850.13" font-family="Helvetica,sans-Serif" font-size="32.00" fill="#29235c">*</text>
<text text-anchor="middle" x="1164.1" y="-2468.13" font-family="Helvetica,sans-Serif" font-size="32.00" fill="#29235c">1</text>
</g>
<!-- Walk -->
<g id="Walk" class="node">
<title>Walk</title>
<ellipse fill="none" stroke="black" stroke-width="0" cx="316.78" cy="-1126.53" rx="316.57" ry="299.63"/>
<polygon fill="#1d71b8" stroke="transparent" points="94.78,-1276.53 94.78,-1336.53 538.78,-1336.53 538.78,-1276.53 94.78,-1276.53"/>
<polygon fill="none" stroke="#29235c" points="94.78,-1276.53 94.78,-1336.53 538.78,-1336.53 538.78,-1276.53 94.78,-1276.53"/>
<text text-anchor="start" x="218.99" y="-1297.73" font-family="Helvetica,sans-Serif" font-weight="bold" font-size="32.00" fill="#ffffff"> &#160;&#160;&#160;&#160;&#160;&#160;Walk &#160;&#160;&#160;&#160;&#160;&#160;</text>
<polygon fill="#e7e2dd" stroke="transparent" points="94.78,-1216.53 94.78,-1276.53 538.78,-1276.53 538.78,-1216.53 94.78,-1216.53"/>
<polygon fill="none" stroke="#29235c" points="94.78,-1216.53 94.78,-1276.53 538.78,-1276.53 538.78,-1216.53 94.78,-1216.53"/>
<text text-anchor="start" x="105.78" y="-1237.73" font-family="Helvetica,sans-Serif" font-weight="bold" font-size="32.00" fill="#29235c">id</text>
<text text-anchor="start" x="130.67" y="-1237.73" font-family="Helvetica,sans-Serif" font-size="32.00" fill="#29235c"> &#160;&#160;&#160;</text>
<text text-anchor="start" x="385.57" y="-1237.73" font-family="Helvetica,sans-Serif" font-style="italic" font-size="32.00" fill="#29235c">INTEGER</text>
<polygon fill="#e7e2dd" stroke="transparent" points="94.78,-1156.53 94.78,-1216.53 538.78,-1216.53 538.78,-1156.53 94.78,-1156.53"/>
<polygon fill="none" stroke="#29235c" points="94.78,-1156.53 94.78,-1216.53 538.78,-1216.53 538.78,-1156.53 94.78,-1156.53"/>
<text text-anchor="start" x="105.78" y="-1176.73" font-family="Helvetica,sans-Serif" font-size="32.00" fill="#29235c">dog_id &#160;&#160;&#160;</text>
<text text-anchor="start" x="385.57" y="-1177.73" font-family="Helvetica,sans-Serif" font-style="italic" font-size="32.00" fill="#29235c">INTEGER</text>
<polygon fill="#e7e2dd" stroke="transparent" points="94.78,-1096.53 94.78,-1156.53 538.78,-1156.53 538.78,-1096.53 94.78,-1096.53"/>
<polygon fill="none" stroke="#29235c" points="94.78,-1096.53 94.78,-1156.53 538.78,-1156.53 538.78,-1096.53 94.78,-1096.53"/>
<text text-anchor="start" x="105.78" y="-1116.73" font-family="Helvetica,sans-Serif" font-size="32.00" fill="#29235c">walker_id &#160;&#160;&#160;</text>
<text text-anchor="start" x="385.57" y="-1117.73" font-family="Helvetica,sans-Serif" font-style="italic" font-size="32.00" fill="#29235c">INTEGER</text>
<polygon fill="#e7e2dd" stroke="transparent" points="94.78,-1036.53 94.78,-1096.53 538.78,-1096.53 538.78,-1036.53 94.78,-1036.53"/>
<polygon fill="none" stroke="#29235c" points="94.78,-1036.53 94.78,-1096.53 538.78,-1096.53 538.78,-1036.53 94.78,-1036.53"/>
<text text-anchor="start" x="105.78" y="-1056.73" font-family="Helvetica,sans-Serif" font-size="32.00" fill="#29235c">date_time &#160;&#160;&#160;</text>
<text text-anchor="start" x="366.02" y="-1057.73" font-family="Helvetica,sans-Serif" font-style="italic" font-size="32.00" fill="#29235c">DATETIME</text>
<polygon fill="#e7e2dd" stroke="transparent" points="94.78,-976.53 94.78,-1036.53 538.78,-1036.53 538.78,-976.53 94.78,-976.53"/>
<polygon fill="none" stroke="#29235c" points="94.78,-976.53 94.78,-1036.53 538.78,-1036.53 538.78,-976.53 94.78,-976.53"/>
<text text-anchor="start" x="105.3" y="-996.73" font-family="Helvetica,sans-Serif" font-size="32.00" fill="#29235c">duration_minutes &#160;&#160;&#160;</text>
<text text-anchor="start" x="385.68" y="-997.73" font-family="Helvetica,sans-Serif" font-style="italic" font-size="32.00" fill="#29235c">INTEGER</text>
<polygon fill="#e7e2dd" stroke="transparent" points="94.78,-916.53 94.78,-976.53 538.78,-976.53 538.78,-916.53 94.78,-916.53"/>
<polygon fill="none" stroke="#29235c" points="94.78,-916.53 94.78,-976.53 538.78,-976.53 538.78,-916.53 94.78,-916.53"/>
<text text-anchor="start" x="105.78" y="-936.73" font-family="Helvetica,sans-Serif" font-size="32.00" fill="#29235c">location_id &#160;&#160;&#160;</text>
<text text-anchor="start" x="385.57" y="-937.73" font-family="Helvetica,sans-Serif" font-style="italic" font-size="32.00" fill="#29235c">INTEGER</text>
<polygon fill="none" stroke="#29235c" stroke-width="2" points="93.78,-915.53 93.78,-1337.53 539.78,-1337.53 539.78,-915.53 93.78,-915.53"/>
</g>
<!-- Walk&#45;&gt;Dog -->
<!-- Walk&#45;&gt;Dog -->
<g id="edge14" class="edge">
<title>Walk:e&#45;&gt;Dog:w</title>
<path fill="none" stroke="#29235c" stroke-width="3" d="M539.78,-1186.53C714.6,-1186.53 623.45,-2585.91 669.57,-2754.53 705.63,-2886.4 668.91,-3030.99 796.87,-3038.25"/>
<polygon fill="#29235c" stroke="#29235c" stroke-width="3" points="797.12,-3041.76 807.21,-3038.53 797.31,-3034.76 797.12,-3041.76"/>
<text text-anchor="middle" x="813.43" y="-3048.13" font-family="Helvetica,sans-Serif" font-size="32.00" fill="#29235c">*</text>
<text text-anchor="middle" x="530.89" y="-1196.13" font-family="Helvetica,sans-Serif" font-size="32.00" fill="#29235c">1</text>
</g>
<!-- Walk&#45;&gt;Location -->
<!-- Walk&#45;&gt;Location -->
<g id="edge16" class="edge">
<title>Walk:e&#45;&gt;Location:w</title>
<path fill="none" stroke="#29235c" stroke-width="3" d="M539.78,-946.53C809.58,-946.53 545.2,-592.95 669.57,-353.53 709.93,-275.84 716.61,-208.03 797.92,-202.85"/>
<polygon fill="#29235c" stroke="#29235c" stroke-width="3" points="798.32,-206.34 808.21,-202.53 798.11,-199.34 798.32,-206.34"/>
<text text-anchor="middle" x="814.43" y="-173.73" font-family="Helvetica,sans-Serif" font-size="32.00" fill="#29235c">*</text>
<text text-anchor="middle" x="530.89" y="-956.13" font-family="Helvetica,sans-Serif" font-size="32.00" fill="#29235c">1</text>
</g>
<!-- Walk&#45;&gt;Walker -->
<!-- Walk&#45;&gt;Walker -->
<g id="edge18" class="edge">
<title>Walk:e&#45;&gt;Walker:w</title>
<path fill="none" stroke="#29235c" stroke-width="3" d="M539.78,-1126.53C714.47,-1126.53 527.1,-856.63 669.57,-755.53 724.42,-716.61 1219.85,-716.83 1274.85,-755.53 1461.57,-886.94 1226.43,-1235.76 1440.73,-1246.29"/>
<polygon fill="#29235c" stroke="#29235c" stroke-width="3" points="1440.86,-1249.79 1450.94,-1246.53 1441.02,-1242.8 1440.86,-1249.79"/>
<text text-anchor="middle" x="1457.16" y="-1256.13" font-family="Helvetica,sans-Serif" font-size="32.00" fill="#29235c">*</text>
<text text-anchor="middle" x="530.89" y="-1136.13" font-family="Helvetica,sans-Serif" font-size="32.00" fill="#29235c">1</text>
</g>
<!-- WalkerPackage -->
<g id="WalkerPackage" class="node">
<title>WalkerPackage</title>
<ellipse fill="none" stroke="black" stroke-width="0" cx="972.21" cy="-1507.53" rx="264.42" ry="172.57"/>
<polygon fill="#1d71b8" stroke="transparent" points="787.21,-1567.53 787.21,-1627.53 1157.21,-1627.53 1157.21,-1567.53 787.21,-1567.53"/>
<polygon fill="none" stroke="#29235c" points="787.21,-1567.53 787.21,-1627.53 1157.21,-1627.53 1157.21,-1567.53 787.21,-1567.53"/>
<text text-anchor="start" x="797.94" y="-1588.73" font-family="Helvetica,sans-Serif" font-weight="bold" font-size="32.00" fill="#ffffff"> &#160;&#160;&#160;&#160;&#160;&#160;WalkerPackage &#160;&#160;&#160;&#160;&#160;&#160;</text>
<polygon fill="#e7e2dd" stroke="transparent" points="787.21,-1507.53 787.21,-1567.53 1157.21,-1567.53 1157.21,-1507.53 787.21,-1507.53"/>
<polygon fill="none" stroke="#29235c" points="787.21,-1507.53 787.21,-1567.53 1157.21,-1567.53 1157.21,-1507.53 787.21,-1507.53"/>
<text text-anchor="start" x="798.21" y="-1528.73" font-family="Helvetica,sans-Serif" font-weight="bold" font-size="32.00" fill="#29235c">id</text>
<text text-anchor="start" x="823.1" y="-1528.73" font-family="Helvetica,sans-Serif" font-size="32.00" fill="#29235c"> &#160;&#160;&#160;</text>
<text text-anchor="start" x="1003.99" y="-1528.73" font-family="Helvetica,sans-Serif" font-style="italic" font-size="32.00" fill="#29235c">INTEGER</text>
<polygon fill="#e7e2dd" stroke="transparent" points="787.21,-1447.53 787.21,-1507.53 1157.21,-1507.53 1157.21,-1447.53 787.21,-1447.53"/>
<polygon fill="none" stroke="#29235c" points="787.21,-1447.53 787.21,-1507.53 1157.21,-1507.53 1157.21,-1447.53 787.21,-1447.53"/>
<text text-anchor="start" x="798.21" y="-1467.73" font-family="Helvetica,sans-Serif" font-size="32.00" fill="#29235c">walker_id &#160;&#160;&#160;</text>
<text text-anchor="start" x="1003.99" y="-1468.73" font-family="Helvetica,sans-Serif" font-style="italic" font-size="32.00" fill="#29235c">INTEGER</text>
<polygon fill="#e7e2dd" stroke="transparent" points="787.21,-1387.53 787.21,-1447.53 1157.21,-1447.53 1157.21,-1387.53 787.21,-1387.53"/>
<polygon fill="none" stroke="#29235c" points="787.21,-1387.53 787.21,-1447.53 1157.21,-1447.53 1157.21,-1387.53 787.21,-1387.53"/>
<text text-anchor="start" x="798.21" y="-1407.73" font-family="Helvetica,sans-Serif" font-size="32.00" fill="#29235c">package_id &#160;&#160;&#160;</text>
<text text-anchor="start" x="1003.99" y="-1408.73" font-family="Helvetica,sans-Serif" font-style="italic" font-size="32.00" fill="#29235c">INTEGER</text>
<polygon fill="none" stroke="#29235c" stroke-width="2" points="786.21,-1386.53 786.21,-1628.53 1158.21,-1628.53 1158.21,-1386.53 786.21,-1386.53"/>
</g>
<!-- WalkerPackage&#45;&gt;Package -->
<!-- WalkerPackage&#45;&gt;Package -->
<g id="edge20" class="edge">
<title>WalkerPackage:e&#45;&gt;Package:w</title>
<path fill="none" stroke="#29235c" stroke-width="3" d="M1158.21,-1417.53C1383.38,-1417.53 1227.2,-1827.83 1440.82,-1840.25"/>
<polygon fill="#29235c" stroke="#29235c" stroke-width="3" points="1440.84,-1843.75 1450.94,-1840.53 1441.04,-1836.75 1440.84,-1843.75"/>
<text text-anchor="middle" x="1444.71" y="-1811.73" font-family="Helvetica,sans-Serif" font-size="32.00" fill="#29235c">*</text>
<text text-anchor="middle" x="1167.1" y="-1427.13" font-family="Helvetica,sans-Serif" font-size="32.00" fill="#29235c">1</text>
</g>
<!-- WalkerPackage&#45;&gt;Walker -->
<!-- WalkerPackage&#45;&gt;Walker -->
<g id="edge22" class="edge">
<title>WalkerPackage:e&#45;&gt;Walker:w</title>
<path fill="none" stroke="#29235c" stroke-width="3" d="M1158.21,-1477.53C1320.38,-1477.53 1286.78,-1256.35 1440.53,-1246.85"/>
<polygon fill="#29235c" stroke="#29235c" stroke-width="3" points="1441.05,-1250.34 1450.94,-1246.53 1440.83,-1243.34 1441.05,-1250.34"/>
<text text-anchor="middle" x="1457.16" y="-1217.73" font-family="Helvetica,sans-Serif" font-size="32.00" fill="#29235c">*</text>
<text text-anchor="middle" x="1167.1" y="-1487.13" font-family="Helvetica,sans-Serif" font-size="32.00" fill="#29235c">1</text>
</g>
<!-- WalkerService -->
<g id="WalkerService" class="node">
<title>WalkerService</title>
<ellipse fill="none" stroke="black" stroke-width="0" cx="972.21" cy="-535.53" rx="251.96" ry="172.57"/>
<polygon fill="#1d71b8" stroke="transparent" points="796.21,-595.53 796.21,-655.53 1148.21,-655.53 1148.21,-595.53 796.21,-595.53"/>
<polygon fill="none" stroke="#29235c" points="796.21,-595.53 796.21,-655.53 1148.21,-655.53 1148.21,-595.53 796.21,-595.53"/>
<text text-anchor="start" x="806.86" y="-616.73" font-family="Helvetica,sans-Serif" font-weight="bold" font-size="32.00" fill="#ffffff"> &#160;&#160;&#160;&#160;&#160;&#160;WalkerService &#160;&#160;&#160;&#160;&#160;&#160;</text>
<polygon fill="#e7e2dd" stroke="transparent" points="796.21,-535.53 796.21,-595.53 1148.21,-595.53 1148.21,-535.53 796.21,-535.53"/>
<polygon fill="none" stroke="#29235c" points="796.21,-535.53 796.21,-595.53 1148.21,-595.53 1148.21,-535.53 796.21,-535.53"/>
<text text-anchor="start" x="807.21" y="-556.73" font-family="Helvetica,sans-Serif" font-weight="bold" font-size="32.00" fill="#29235c">id</text>
<text text-anchor="start" x="832.1" y="-556.73" font-family="Helvetica,sans-Serif" font-size="32.00" fill="#29235c"> &#160;&#160;&#160;</text>
<text text-anchor="start" x="994.99" y="-556.73" font-family="Helvetica,sans-Serif" font-style="italic" font-size="32.00" fill="#29235c">INTEGER</text>
<polygon fill="#e7e2dd" stroke="transparent" points="796.21,-475.53 796.21,-535.53 1148.21,-535.53 1148.21,-475.53 796.21,-475.53"/>
<polygon fill="none" stroke="#29235c" points="796.21,-475.53 796.21,-535.53 1148.21,-535.53 1148.21,-475.53 796.21,-475.53"/>
<text text-anchor="start" x="807.21" y="-495.73" font-family="Helvetica,sans-Serif" font-size="32.00" fill="#29235c">walker_id &#160;&#160;&#160;</text>
<text text-anchor="start" x="994.99" y="-496.73" font-family="Helvetica,sans-Serif" font-style="italic" font-size="32.00" fill="#29235c">INTEGER</text>
<polygon fill="#e7e2dd" stroke="transparent" points="796.21,-415.53 796.21,-475.53 1148.21,-475.53 1148.21,-415.53 796.21,-415.53"/>
<polygon fill="none" stroke="#29235c" points="796.21,-415.53 796.21,-475.53 1148.21,-475.53 1148.21,-415.53 796.21,-415.53"/>
<text text-anchor="start" x="807.21" y="-435.73" font-family="Helvetica,sans-Serif" font-size="32.00" fill="#29235c">service_id &#160;&#160;&#160;</text>
<text text-anchor="start" x="994.99" y="-436.73" font-family="Helvetica,sans-Serif" font-style="italic" font-size="32.00" fill="#29235c">INTEGER</text>
<polygon fill="none" stroke="#29235c" stroke-width="2" points="795.21,-414.53 795.21,-656.53 1149.21,-656.53 1149.21,-414.53 795.21,-414.53"/>
</g>
<!-- WalkerService&#45;&gt;Walker -->
<!-- WalkerService&#45;&gt;Walker -->
<g id="edge26" class="edge">
<title>WalkerService:e&#45;&gt;Walker:w</title>
<path fill="none" stroke="#29235c" stroke-width="3" d="M1149.21,-505.53C1501.33,-505.53 1103.27,-1232.13 1440.74,-1246.32"/>
<polygon fill="#29235c" stroke="#29235c" stroke-width="3" points="1440.87,-1249.83 1450.94,-1246.53 1441.01,-1242.83 1440.87,-1249.83"/>
<text text-anchor="middle" x="1444.71" y="-1256.13" font-family="Helvetica,sans-Serif" font-size="32.00" fill="#29235c">*</text>
<text text-anchor="middle" x="1158.1" y="-476.73" font-family="Helvetica,sans-Serif" font-size="32.00" fill="#29235c">1</text>
</g>
<!-- WalkerService&#45;&gt;Service -->
<!-- WalkerService&#45;&gt;Service -->
<g id="edge24" class="edge">
<title>WalkerService:e&#45;&gt;Service:w</title>
<path fill="none" stroke="#29235c" stroke-width="3" d="M1149.21,-445.53C1274.46,-445.53 1283.73,-559.06 1402.64,-565.27"/>
<polygon fill="#29235c" stroke="#29235c" stroke-width="3" points="1402.85,-568.78 1412.94,-565.53 1403.03,-561.78 1402.85,-568.78"/>
<text text-anchor="middle" x="1406.71" y="-536.73" font-family="Helvetica,sans-Serif" font-size="32.00" fill="#29235c">*</text>
<text text-anchor="middle" x="1158.1" y="-416.73" font-family="Helvetica,sans-Serif" font-size="32.00" fill="#29235c">1</text>
</g>
</g>
</svg>
